# Blender v3.2.0 OBJ File: ''
# www.blender.org
mtllib wood_table.mtl
o newtable
v 1.921534 -12.086184 10.812792
v 5.282073 -12.086184 10.812792
v 5.282073 -12.086184 11.578825
v 1.921534 -12.086184 11.578825
v 5.282073 12.477716 11.578829
v 1.921534 12.477716 11.578829
v 5.282073 12.477716 10.812796
v 1.921534 12.477716 10.812796
v 1.777929 -12.086184 11.582793
v -1.582601 -12.086184 11.574855
v -1.580792 -12.086184 10.808825
v 1.779738 -12.086184 10.816762
v -1.580792 12.477716 10.808828
v 1.779738 12.477716 10.816766
v -1.582601 12.477716 11.574859
v 1.777929 12.477716 11.582797
v -1.721974 -12.086184 11.582793
v -5.082503 -12.086184 11.574855
v -5.080694 -12.086184 10.808825
v -1.720164 -12.086184 10.816762
v -5.080694 12.477716 10.808828
v -1.720164 12.477716 10.816766
v -5.082503 12.477716 11.574859
v -1.721974 12.477716 11.582797
v 3.980398 -9.562762 11.256947
v 3.933749 -9.562762 9.377018
v 4.616817 -9.562762 9.355718
v 4.663465 -9.562762 11.235646
v 4.616817 10.076780 9.355721
v 4.663465 10.076780 11.235650
v 3.933749 10.076780 9.377022
v 3.980398 10.076780 11.256950
v -4.065431 -9.488668 11.256947
v -4.112079 -9.488668 9.377018
v -3.429011 -9.488668 9.355718
v -3.382363 -9.488668 11.235646
v -3.429011 9.722240 9.355721
v -3.382363 9.722240 11.235650
v -4.112079 9.722240 9.377022
v -4.065431 9.722240 11.256950
v 4.239412 9.928786 9.375239
v 4.228277 9.932887 10.890730
v 4.251502 9.415990 10.892343
v 4.262637 9.411889 9.376853
v -3.701681 9.561717 10.947577
v -3.690546 9.557616 9.432087
v -3.724906 10.078614 10.945964
v -3.713771 10.074513 9.430473
v 4.232192 -9.526629 10.955482
v 4.223443 -9.529144 9.439967
v 4.259210 -9.013144 9.438852
v 4.267959 -9.010632 10.954365
v -3.694461 -9.043128 9.367327
v -3.685712 -9.040614 10.882841
v -3.730228 -9.559126 9.368443
v -3.721479 -9.556613 10.883956
v 3.707445 -9.817876 -0.972412
v 4.774549 -9.817876 -0.972412
v 4.774549 -9.817878 11.155789
v 3.707445 -9.817878 11.155789
v 4.774549 -8.628224 11.155790
v 3.707445 -8.628224 11.155790
v 4.774549 -8.628222 -0.972411
v 3.707445 -8.628222 -0.972411
v 4.699021 10.221537 -0.972408
v 3.641448 10.062003 -0.972408
v 3.641448 10.062001 11.155793
v 4.699021 10.221535 11.155793
v 3.782974 8.882974 11.155793
v 4.840546 9.042508 11.155793
v 3.782974 8.882976 -0.972409
v 4.840546 9.042510 -0.972409
v -4.469151 8.760665 -0.972409
v -3.402047 8.760665 -0.972409
v -3.402047 8.760663 11.155792
v -4.469151 8.760663 11.155792
v -3.402047 9.950317 11.155793
v -4.469151 9.950317 11.155793
v -3.402047 9.950319 -0.972408
v -4.469151 9.950319 -0.972408
v -3.415918 -8.500646 -0.972411
v -4.482667 -8.531516 -0.972411
v -4.482667 -8.531518 11.155790
v -3.415918 -8.500648 11.155790
v -4.455281 -9.720776 11.155789
v -3.388532 -9.689905 11.155789
v -4.455281 -9.720774 -0.972412
v -3.388532 -9.689903 -0.972412
vt 0.383474 0.268036
vt 0.402075 0.341187
vt 0.385368 0.341613
vt 0.400330 0.267631
vt 0.939828 0.327374
vt 0.954345 0.236628
vt 0.935592 0.163501
vt 0.952323 0.163073
vt 0.937374 0.237064
vt 0.397892 0.177316
vt 0.399888 0.250875
vt 0.402464 0.357936
vt 0.940299 0.344146
vt 0.383492 0.268120
vt 0.402004 0.341189
vt 0.385368 0.341613
vt 0.400249 0.267698
vt 0.939362 0.327499
vt 0.951765 0.163351
vt 0.936966 0.237265
vt 0.935125 0.163771
vt 0.397899 0.177451
vt 0.399800 0.250948
vt 0.402319 0.357940
vt 0.939900 0.344261
vt 0.388812 0.477198
vt 0.407323 0.550267
vt 0.390688 0.550690
vt 0.405569 0.476775
vt 0.944682 0.536576
vt 0.959073 0.445912
vt 0.940445 0.372848
vt 0.957084 0.372428
vt 0.942286 0.446343
vt 0.403219 0.386529
vt 0.405120 0.460026
vt 0.407638 0.567017
vt 0.945220 0.553338
vt 0.388812 0.477198
vt 0.407323 0.550267
vt 0.390688 0.550690
vt 0.405569 0.476775
vt 0.944682 0.536576
vt 0.957084 0.372428
vt 0.942286 0.446343
vt 0.940445 0.372848
vt 0.403219 0.386529
vt 0.405120 0.460026
vt 0.407638 0.567017
vt 0.945220 0.553338
vt 0.388812 0.477198
vt 0.407323 0.550267
vt 0.390688 0.550690
vt 0.405569 0.476775
vt 0.944682 0.536576
vt 0.957084 0.372428
vt 0.942286 0.446343
vt 0.940445 0.372848
vt 0.403219 0.386529
vt 0.405120 0.460026
vt 0.407638 0.567017
vt 0.945220 0.553338
vt 0.388812 0.477198
vt 0.407323 0.550267
vt 0.390688 0.550690
vt 0.405569 0.476775
vt 0.944682 0.536576
vt 0.957084 0.372428
vt 0.942286 0.446343
vt 0.940445 0.372848
vt 0.405120 0.460026
vt 0.403219 0.386529
vt 0.942691 0.463093
vt 0.407638 0.567017
vt 0.945220 0.553338
vt 0.388812 0.477198
vt 0.407323 0.550267
vt 0.390688 0.550690
vt 0.405569 0.476775
vt 0.944682 0.536576
vt 0.957084 0.372428
vt 0.942286 0.446343
vt 0.940445 0.372848
vt 0.405120 0.460026
vt 0.403219 0.386529
vt 0.942691 0.463093
vt 0.407638 0.567017
vt 0.945220 0.553338
vt 0.344036 0.645319
vt 0.716651 0.670814
vt 0.344585 0.678959
vt 0.754760 0.743312
vt 0.717296 0.710349
vt 0.754210 0.709541
vt 0.717846 0.744120
vt 0.345229 0.718494
vt 0.345780 0.752265
vt 0.312201 0.719217
vt 0.718544 0.786915
vt 0.346477 0.795060
vt 0.344036 0.645319
vt 0.716651 0.670814
vt 0.344585 0.678959
vt 0.754760 0.743312
vt 0.717296 0.710349
vt 0.754210 0.709541
vt 0.717846 0.744120
vt 0.345229 0.718494
vt 0.312752 0.752988
vt 0.312201 0.719217
vt 0.345780 0.752265
vt 0.718544 0.786915
vt 0.346477 0.795060
vt 0.344036 0.645319
vt 0.716651 0.670814
vt 0.344585 0.678959
vt 0.754760 0.743312
vt 0.717296 0.710349
vt 0.754210 0.709541
vt 0.717846 0.744120
vt 0.345229 0.718494
vt 0.345780 0.752265
vt 0.312201 0.719217
vt 0.718544 0.786915
vt 0.346477 0.795060
vt 0.344036 0.645319
vt 0.716651 0.670814
vt 0.344585 0.678959
vt 0.754760 0.743312
vt 0.717296 0.710349
vt 0.754210 0.709541
vt 0.717846 0.744120
vt 0.345229 0.718494
vt 0.312752 0.752988
vt 0.312201 0.719217
vt 0.345780 0.752265
vt 0.718544 0.786915
vt 0.346477 0.795060
vt 0.937797 0.253819
vt 0.937371 0.254016
vt 0.953753 0.236834
vt 0.942691 0.463093
vt 0.942691 0.463093
vt 0.959073 0.445912
vt 0.942691 0.463093
vt 0.959073 0.445912
vt 0.959073 0.445912
vt 0.959073 0.445912
vt 0.716103 0.637175
vt 0.312752 0.752988
vt 0.716103 0.637175
vt 0.716103 0.637175
vt 0.312752 0.752988
vt 0.716103 0.637175
vn 0.0000 -1.0000 0.0000
vn 0.0000 -0.0000 1.0000
vn 0.0000 1.0000 0.0000
vn 0.0000 0.0000 -1.0000
vn 1.0000 0.0000 0.0000
vn -1.0000 0.0000 0.0000
vn 0.0024 0.0000 -1.0000
vn -0.0024 -0.0000 1.0000
vn -1.0000 0.0000 -0.0024
vn 1.0000 0.0000 0.0024
vn 0.9997 0.0000 -0.0248
vn -0.9997 -0.0000 0.0248
vn -0.0312 0.0000 -0.9995
vn 0.0312 -0.0000 0.9995
vn 0.9990 0.0449 0.0072
vn -0.0183 -0.9998 0.0026
vn -0.9990 -0.0449 -0.0072
vn 0.0183 0.9998 -0.0026
vn 0.0070 0.0034 1.0000
vn -0.0070 -0.0034 -1.0000
vn 0.9976 -0.0692 -0.0056
vn -0.0038 1.0000 -0.0016
vn -0.9976 0.0692 0.0056
vn 0.0038 -1.0000 0.0016
vn 0.0090 -0.0028 -1.0000
vn -0.0090 0.0028 1.0000
vn -0.1492 0.9888 0.0000
vn 0.1492 -0.9888 -0.0000
vn -0.9929 -0.1192 -0.0000
vn 0.9929 0.1192 0.0000
vn -0.0289 0.9996 0.0000
vn 0.0289 -0.9996 -0.0000
vn -0.9997 -0.0230 -0.0000
vn 0.9997 0.0230 0.0000
usemtl Default_OBJ
s off
f 2/1/1 4/2/1 1/3/1
f 3/4/2 6/5/2 4/2/2
f 5/6/3 8/7/3 6/8/3
f 7/9/4 1/10/4 8/7/4
f 7/9/5 3/4/5 2/11/5
f 1/12/6 6/5/6 8/13/6
f 10/14/1 12/15/1 9/16/1
f 11/17/7 14/18/7 12/15/7
f 14/19/3 15/20/3 16/21/3
f 15/20/8 9/22/8 16/21/8
f 15/20/9 11/17/9 10/23/9
f 9/24/10 14/18/10 16/25/10
f 18/26/1 20/27/1 17/28/1
f 19/29/7 22/30/7 20/27/7
f 21/31/3 24/32/3 22/33/3
f 23/34/8 17/35/8 24/32/8
f 23/34/9 19/29/9 18/36/9
f 17/37/10 22/30/10 24/38/10
f 26/39/1 28/40/1 25/41/1
f 27/42/11 30/43/11 28/40/11
f 30/44/3 31/45/3 32/46/3
f 31/45/12 25/47/12 32/46/12
f 31/45/13 27/42/13 26/48/13
f 25/49/14 30/43/14 32/50/14
f 34/51/1 36/52/1 33/53/1
f 35/54/11 38/55/11 36/52/11
f 38/56/3 39/57/3 40/58/3
f 39/57/12 33/59/12 40/58/12
f 39/57/13 35/54/13 34/60/13
f 33/61/14 38/55/14 40/62/14
f 42/63/15 44/64/15 41/65/15
f 43/66/16 46/67/16 44/64/16
f 46/68/17 47/69/17 48/70/17
f 48/70/18 42/71/18 41/72/18
f 42/71/19 45/73/19 43/66/19
f 41/74/20 46/67/20 48/75/20
f 50/76/21 52/77/21 49/78/21
f 51/79/22 54/80/22 52/77/22
f 54/81/23 55/82/23 56/83/23
f 56/83/24 50/84/24 49/85/24
f 50/84/25 53/86/25 51/79/25
f 49/87/26 54/80/26 56/88/26
f 58/89/1 60/90/1 57/91/1
f 59/92/2 62/93/2 60/94/2
f 61/95/3 64/96/3 62/93/3
f 63/97/4 57/98/4 64/96/4
f 63/97/5 59/99/5 58/100/5
f 57/91/6 62/93/6 64/96/6
f 66/101/27 68/102/27 65/103/27
f 67/104/2 70/105/2 68/106/2
f 69/107/28 72/108/28 70/105/28
f 72/108/4 66/109/4 65/110/4
f 71/111/29 67/112/29 66/113/29
f 65/103/30 70/105/30 72/108/30
f 74/114/1 76/115/1 73/116/1
f 75/117/2 78/118/2 76/119/2
f 77/120/3 80/121/3 78/118/3
f 79/122/4 73/123/4 80/121/4
f 79/122/5 75/124/5 74/125/5
f 73/116/6 78/118/6 80/121/6
f 82/126/31 84/127/31 81/128/31
f 83/129/2 86/130/2 84/131/2
f 85/132/32 88/133/32 86/130/32
f 88/133/4 82/134/4 81/135/4
f 87/136/33 83/137/33 82/138/33
f 81/128/34 86/130/34 88/133/34
f 2/1/1 3/4/1 4/2/1
f 3/4/2 5/139/2 6/5/2
f 5/6/3 7/9/3 8/7/3
f 7/9/4 2/11/4 1/10/4
f 7/9/5 5/139/5 3/4/5
f 1/12/6 4/2/6 6/5/6
f 10/14/1 11/17/1 12/15/1
f 11/17/7 13/140/7 14/18/7
f 14/19/3 13/141/3 15/20/3
f 15/20/8 10/23/8 9/22/8
f 15/20/9 13/140/9 11/17/9
f 9/24/10 12/15/10 14/18/10
f 18/26/1 19/29/1 20/27/1
f 19/29/7 21/142/7 22/30/7
f 21/31/3 23/34/3 24/32/3
f 23/34/8 18/36/8 17/35/8
f 23/34/9 21/142/9 19/29/9
f 17/37/10 20/27/10 22/30/10
f 26/39/1 27/42/1 28/40/1
f 27/42/11 29/143/11 30/43/11
f 30/44/3 29/144/3 31/45/3
f 31/45/12 26/48/12 25/47/12
f 31/45/13 29/143/13 27/42/13
f 25/49/14 28/40/14 30/43/14
f 34/51/1 35/54/1 36/52/1
f 35/54/11 37/145/11 38/55/11
f 38/56/3 37/146/3 39/57/3
f 39/57/12 34/60/12 33/59/12
f 39/57/13 37/145/13 35/54/13
f 33/61/14 36/52/14 38/55/14
f 42/63/15 43/66/15 44/64/15
f 43/66/16 45/73/16 46/67/16
f 46/68/17 45/147/17 47/69/17
f 48/70/18 47/69/18 42/71/18
f 42/71/19 47/69/19 45/73/19
f 41/74/20 44/64/20 46/67/20
f 50/76/21 51/79/21 52/77/21
f 51/79/22 53/86/22 54/80/22
f 54/81/23 53/148/23 55/82/23
f 56/83/24 55/82/24 50/84/24
f 50/84/25 55/82/25 53/86/25
f 49/87/26 52/77/26 54/80/26
f 58/89/1 59/149/1 60/90/1
f 59/92/2 61/95/2 62/93/2
f 61/95/3 63/97/3 64/96/3
f 63/97/4 58/150/4 57/98/4
f 63/97/5 61/95/5 59/99/5
f 57/91/6 60/90/6 62/93/6
f 66/101/27 67/151/27 68/102/27
f 67/104/2 69/107/2 70/105/2
f 69/107/28 71/111/28 72/108/28
f 72/108/4 71/111/4 66/109/4
f 71/111/29 69/107/29 67/112/29
f 65/103/30 68/102/30 70/105/30
f 74/114/1 75/152/1 76/115/1
f 75/117/2 77/120/2 78/118/2
f 77/120/3 79/122/3 80/121/3
f 79/122/4 74/153/4 73/123/4
f 79/122/5 77/120/5 75/124/5
f 73/116/6 76/115/6 78/118/6
f 82/126/31 83/154/31 84/127/31
f 83/129/2 85/132/2 86/130/2
f 85/132/32 87/136/32 88/133/32
f 88/133/4 87/136/4 82/134/4
f 87/136/33 85/132/33 83/137/33
f 81/128/34 84/127/34 86/130/34
